<?xml version="1.0" encoding="utf-8"?>
<!-- Generator: Adobe Illustrator 19.2.1, SVG Export Plug-In . SVG Version: 6.00 Build 0)  -->
<svg version="1.1" xmlns="http://www.w3.org/2000/svg" xmlns:xlink="http://www.w3.org/1999/xlink" x="0px" y="0px"
	 viewBox="0 0 486.4 509.1" style="enable-background:new 0 0 486.4 509.1;" xml:space="preserve">
<style type="text/css">
	.st0{clip-path:url(#SVGID_2_);fill:none;stroke:#151515;stroke-width:4;stroke-miterlimit:10;}
	.st1{clip-path:url(#SVGID_2_);fill:#FBFBFB;}
	.st2{clip-path:url(#SVGID_2_);fill:#FBFBFB;stroke:#F0BB09;stroke-miterlimit:10;}
	.st3{clip-path:url(#SVGID_2_);fill:#FFFFFF;}
	.st4{clip-path:url(#SVGID_2_);fill:#151515;}
	.st5{fill:#FFD200;stroke:#151515;stroke-width:3;stroke-miterlimit:10;}
	.st6{fill:#080808;stroke:#FBFBFB;stroke-miterlimit:10;}
	.st7{fill:#FBFBFB;stroke:#FBFBFB;stroke-miterlimit:10;}
	.st8{fill:#151515;}
	.st9{fill:#FBFBFB;}
	.st10{fill:#070707;}
</style>
<g id="Слой_2">
	<g>
		<defs>
			
				<rect id="SVGID_1_" x="337.3" y="174.6" transform="matrix(0.9285 -0.3714 0.3714 0.9285 -112.4451 273.3976)" width="632.5" height="508"/>
		</defs>
		<clipPath id="SVGID_2_">
			<use xlink:href="#SVGID_1_"  style="overflow:visible;"/>
		</clipPath>
		<path class="st0" d="M330.3,376.7c0,0,11.3,25.1,40.2,65.2c27.1,37.5,54.1,50.2,80.5,39.4c27.9-11.4,23.6-61-21.1-51.2
			c-17.2,3.8-57.7,24.2-71.3,79"/>
		<path class="st1" d="M357.9,379.1l-41-32.6l-1.6,1l-1.9,1.2l-1,0.6l-2.4,1.5l-0.3,0.2l-0.6,0.4l-2.7,1.7l11.8,51.1
			c10.2,2.8,16.2,4.3,22.4,14c0.5,0.8,1,1.6,1.4,2.4l4.7-3l1.4-0.9l0.5-0.3l4.3-2.7l3-1.9l1.9-1.2l4.7-3c-0.5-0.7-1.1-1.5-1.5-2.3
			C354.8,395.6,356,389.5,357.9,379.1"/>
		<path class="st0" d="M357.9,379.1l-41-32.6l-1.6,1l-1.9,1.2l-1,0.6l-2.4,1.5l-0.3,0.2l-0.6,0.4l-2.7,1.7l11.8,51.1
			c10.2,2.8,16.2,4.3,22.4,14c0.5,0.8,1,1.6,1.4,2.4l4.7-3l1.4-0.9l0.5-0.3l4.3-2.7l3-1.9l1.9-1.2l4.7-3c-0.5-0.7-1.1-1.5-1.5-2.3
			C354.8,395.6,356,389.5,357.9,379.1z"/>
		<path class="st2" d="M366.8,406l-28.7,18.2l-1.6-2.5c-1.5-2.3-0.8-5.4,1.6-6.9l20.3-12.8c2.3-1.5,5.4-0.8,6.9,1.6L366.8,406z"/>
		<path class="st0" d="M366.8,406l-28.7,18.2l-1.6-2.5c-1.5-2.3-0.8-5.4,1.6-6.9l20.3-12.8c2.3-1.5,5.4-0.8,6.9,1.6L366.8,406z"/>
		<path class="st3" d="M338.3,384.5c1.2,1.9,0.6,4.3-1.2,5.5c-1.9,1.2-4.3,0.6-5.5-1.2c-1.2-1.9-0.6-4.3,1.2-5.5
			C334.7,382.1,337.2,382.6,338.3,384.5"/>
		<ellipse transform="matrix(0.8456 -0.5339 0.5339 0.8456 -154.6905 238.5425)" class="st0" cx="335" cy="386.6" rx="4" ry="4"/>
		<polygon class="st4" points="334.4,381.6 330.9,384.2 310.1,351.2 313.6,348.6 		"/>
	</g>
</g>
<g id="Layer_1">
	<g>
		<path class="st5" d="M167.4,33.7c-8.5-10.3-21.7-15.4-39.7-15.4c-8.4,0-16.7,1.3-25.1,3.9c-8.4,2.6-15.3,6.5-20.7,11.8
			c11.9,4,21.2,10.2,27.9,18.7c6.7,8.5,10,19.1,10,31.9c0,8.8-2.1,16.7-6.4,23.7c-4.3,7-10.4,12.6-18.4,16.6
			c-8,4.1-17.1,6.1-27.3,6.1c-13.8,0-24.9-4.7-33.1-14.1c-8.3-9.4-12.4-21.2-12.4-35.5c0-22.2,11.9-40.2,35.8-54
			c26.2-14.4,58.8-21.7,98-21.7c44,0,75.2,9.6,93.9,28.9c9,9,15.1,20.2,18.2,33.6c3.1,13.4,4.7,32.1,4.7,56.2v174.9
			c0,10.5,1,17.8,3,22.1c2,4.3,5.5,6.4,10.5,6.4c6.9,0,14.9-3.7,23.9-11l6.6,11c-9.8,8.2-20.5,14.1-32,17.9
			c-11.5,3.8-25.3,5.7-41.4,5.7c-21.8,0-37.5-4.8-47.1-14.4c-9.6-9.6-14.4-22.2-14.4-37.7c-10.5,17.4-24.2,30.4-41.1,39.1
			c-17,8.7-35.1,13-54.3,13c-24.5,0-44.1-6.4-58.9-19.3S5.2,301.4,5.2,278.3c0-22.4,7.3-40.9,22-55.6c14.6-14.6,37.4-27.6,68.1-38.9
			c3.3-1.3,14.2-5.4,32.7-12.4c18.4-7,31.7-14.2,39.9-21.5c8.2-7.3,12.2-15.4,12.2-24.2V75.8C180.1,58,175.9,44,167.4,33.7z
			 M166.8,166.4c-6.2,4.9-15,10.9-26.5,18.1c-13.6,9.4-24.3,20-32,31.9c-7.7,11.8-11.6,26.5-11.6,44.1c0,16.7,3.7,29.3,11,37.5
			c7.3,8.3,17,12.4,28.9,12.4c17,0,31.5-8.8,43.6-26.4V152.1C177.4,156.7,172.9,161.5,166.8,166.4z"/>
	</g>
	<ellipse transform="matrix(0.8975 -0.4411 0.4411 0.8975 -105.5015 102.1907)" class="st6" cx="167" cy="278" rx="3.1" ry="3.1"/>
	<circle class="st7" cx="167" cy="278" r="0.8"/>
	<circle class="st6" cx="176.4" cy="323" r="3.1"/>
	<circle class="st7" cx="176.4" cy="323" r="0.8"/>
	<g>
		<path class="st8" d="M316.3,331.2c-0.9,0-1.8-0.3-2.4-0.9c-1.4-1.3-1.5-3.6-0.2-5c0.7-0.7,1.6-1.1,2.6-1.1c0.9,0,1.8,0.3,2.4,0.9
			c1.4,1.3,1.5,3.6,0.2,5C318.2,330.8,317.3,331.2,316.3,331.2C316.3,331.2,316.3,331.2,316.3,331.2z"/>
		<path class="st8" d="M316.3,325.1c0.6,0,1.2,0.2,1.7,0.7c1,1,1.1,2.5,0.1,3.6c-0.5,0.5-1.2,0.8-1.8,0.8c-0.6,0-1.2-0.2-1.7-0.7
			c-1-1-1.1-2.5-0.1-3.6C314.9,325.4,315.6,325.1,316.3,325.1 M316.3,323.1c-1.2,0-2.5,0.5-3.3,1.4c-1.7,1.8-1.6,4.7,0.2,6.4
			c0.8,0.8,1.9,1.2,3.1,1.2c1.2,0,2.5-0.5,3.3-1.4c1.7-1.8,1.6-4.7-0.2-6.4C318.5,323.5,317.4,323.1,316.3,323.1L316.3,323.1z"/>
	</g>
	<g>
		<path class="st8" d="M289.2,347.8c-1.3,0-2.4-0.7-3.1-1.8c-1-1.7-0.4-3.8,1.3-4.8c0.5-0.3,1.1-0.5,1.8-0.5c1.3,0,2.4,0.7,3.1,1.8
			c1,1.7,0.4,3.8-1.3,4.8C290.4,347.7,289.8,347.8,289.2,347.8L289.2,347.8z"/>
		<path class="st8" d="M289.2,341.8c0.9,0,1.7,0.5,2.2,1.3c0.7,1.2,0.3,2.7-0.9,3.4c-0.4,0.2-0.8,0.3-1.3,0.3
			c-0.9,0-1.7-0.5-2.2-1.3c-0.7-1.2-0.3-2.7,0.9-3.4C288.3,341.9,288.7,341.8,289.2,341.8 M289.2,339.8c-0.8,0-1.6,0.2-2.3,0.6
			c-2.2,1.2-2.9,4-1.7,6.2c0.8,1.4,2.3,2.3,3.9,2.3c0.8,0,1.6-0.2,2.3-0.6c2.2-1.2,2.9-4,1.7-6.2
			C292.3,340.6,290.8,339.8,289.2,339.8L289.2,339.8z"/>
	</g>
	
		<ellipse transform="matrix(0.8153 -0.579 0.579 0.8153 -140.6371 243.3936)" class="st8" cx="311.2" cy="342.1" rx="1.6" ry="1.6"/>
	<polygon class="st8" points="314.7,331.4 311,342.1 311.3,342.2 314.9,331.6 	"/>
	
		<ellipse transform="matrix(5.766920e-003 -1 1 5.766920e-003 -43.9807 647.5178)" class="st8" cx="303.6" cy="345.9" rx="1.6" ry="1.6"/>
	<polygon class="st8" points="292.4,345.3 303.6,346 303.7,345.7 292.5,345 	"/>
	
		<ellipse transform="matrix(0.8975 -0.4411 0.4411 0.8975 -61.2081 94.0052)" class="st6" cx="171.6" cy="178.6" rx="3.1" ry="3.1"/>
	<circle class="st7" cx="171.6" cy="178.6" r="0.8"/>
	<ellipse transform="matrix(0.8975 -0.4411 0.4411 0.8975 -4.4643 48.2319)" class="st6" cx="101.5" cy="33.7" rx="3.1" ry="3.1"/>
	<circle class="st7" cx="101.5" cy="33.7" r="0.8"/>
</g>
<g id="Слой_3">
	<g>
		<path class="st9" d="M287.5,331.7c-1.4,0-2.8-0.8-3.5-2c-0.5-0.9-0.7-2-0.4-3.1c0.3-1,0.9-1.9,1.9-2.4c0.6-0.4,1.3-0.5,2-0.5
			c1.4,0,2.8,0.8,3.5,2c0.5,0.9,0.7,2,0.4,3.1c-0.3,1-0.9,1.9-1.9,2.4C288.9,331.5,288.2,331.7,287.5,331.7L287.5,331.7z"/>
		<path class="st10" d="M287.5,325.1c0.9,0,1.7,0.5,2.2,1.3c0.7,1.2,0.3,2.7-0.9,3.4c-0.4,0.2-0.8,0.3-1.3,0.3
			c-0.9,0-1.7-0.5-2.2-1.3c-0.7-1.2-0.3-2.7,0.9-3.4C286.6,325.2,287.1,325.1,287.5,325.1 M287.5,322.1c-1,0-1.9,0.3-2.8,0.7
			c-2.6,1.5-3.5,4.9-2,7.5c1,1.7,2.8,2.8,4.8,2.8c1,0,1.9-0.3,2.8-0.7c2.6-1.5,3.5-4.9,2-7.5C291.3,323.2,289.5,322.1,287.5,322.1
			L287.5,322.1z"/>
	</g>
	<g>
		<path class="st9" d="M275.6,324.8c-1.4,0-2.8-0.8-3.5-2c-1.1-1.9-0.4-4.4,1.5-5.5c0.6-0.4,1.3-0.5,2-0.5c1.4,0,2.8,0.8,3.5,2
			c1.1,1.9,0.4,4.4-1.5,5.5C277,324.6,276.3,324.8,275.6,324.8C275.6,324.8,275.6,324.8,275.6,324.8z"/>
		<path class="st10" d="M275.6,318.2c0.9,0,1.7,0.5,2.2,1.3c0.7,1.2,0.3,2.7-0.9,3.4c-0.4,0.2-0.8,0.3-1.3,0.3
			c-0.9,0-1.7-0.5-2.2-1.3c-0.7-1.2-0.3-2.7,0.9-3.4C274.7,318.3,275.1,318.2,275.6,318.2 M275.6,315.2c-1,0-1.9,0.3-2.8,0.7
			c-1.3,0.7-2.2,1.9-2.6,3.4s-0.2,2.9,0.6,4.2c1,1.7,2.8,2.8,4.8,2.8c1,0,1.9-0.3,2.8-0.7c2.6-1.5,3.5-4.9,2-7.5
			C279.4,316.3,277.5,315.2,275.6,315.2L275.6,315.2z"/>
	</g>
	<g>
		<path class="st9" d="M272.9,302.7c-1.4,0-2.8-0.8-3.5-2c-0.5-0.9-0.7-2-0.4-3.1c0.3-1,0.9-1.9,1.9-2.4c0.6-0.4,1.3-0.5,2-0.5
			c1.4,0,2.8,0.8,3.5,2c1.1,1.9,0.4,4.4-1.5,5.5C274.3,302.5,273.6,302.7,272.9,302.7C272.9,302.7,272.9,302.7,272.9,302.7z"/>
		<path class="st10" d="M272.9,296.2c0.9,0,1.7,0.5,2.2,1.3c0.7,1.2,0.3,2.7-0.9,3.4c-0.4,0.2-0.8,0.3-1.3,0.3
			c-0.9,0-1.7-0.5-2.2-1.3c-0.7-1.2-0.3-2.7,0.9-3.4C272,296.3,272.5,296.2,272.9,296.2 M272.9,293.2c-1,0-1.9,0.3-2.8,0.7
			c-1.3,0.7-2.2,1.9-2.6,3.4c-0.4,1.4-0.2,2.9,0.6,4.2c1,1.7,2.8,2.8,4.8,2.8c1,0,1.9-0.3,2.8-0.7c1.3-0.7,2.2-1.9,2.6-3.4
			c0.4-1.4,0.2-2.9-0.6-4.2C276.7,294.2,274.9,293.2,272.9,293.2L272.9,293.2z"/>
	</g>
	<g>
		<circle class="st9" cx="272.9" cy="124.1" r="4"/>
		<path class="st10" d="M272.9,121.6c1.4,0,2.5,1.1,2.5,2.5s-1.1,2.5-2.5,2.5c-1.4,0-2.5-1.1-2.5-2.5S271.5,121.6,272.9,121.6
			 M272.9,118.6c-3,0-5.5,2.5-5.5,5.5s2.5,5.5,5.5,5.5s5.5-2.5,5.5-5.5S275.9,118.6,272.9,118.6L272.9,118.6z"/>
	</g>
	<g>
		<circle class="st9" cx="104" cy="21.9" r="4"/>
		<path class="st10" d="M104,19.3c1.4,0,2.5,1.1,2.5,2.5s-1.1,2.5-2.5,2.5s-2.5-1.1-2.5-2.5S102.6,19.3,104,19.3 M104,16.3
			c-3,0-5.5,2.5-5.5,5.5s2.5,5.5,5.5,5.5c3,0,5.5-2.5,5.5-5.5S107.1,16.3,104,16.3L104,16.3z"/>
	</g>
	<g>
		<circle class="st9" cx="128.9" cy="17.9" r="4"/>
		<path class="st10" d="M128.9,15.4c1.4,0,2.5,1.1,2.5,2.5c0,1.4-1.1,2.5-2.5,2.5c-1.4,0-2.5-1.1-2.5-2.5
			C126.4,16.5,127.5,15.4,128.9,15.4 M128.9,12.4c-3,0-5.5,2.5-5.5,5.5s2.5,5.5,5.5,5.5c3,0,5.5-2.5,5.5-5.5S132,12.4,128.9,12.4
			L128.9,12.4z"/>
	</g>
	<g>
		<circle class="st9" cx="167.3" cy="33.5" r="4"/>
		<path class="st10" d="M167.3,31c1.4,0,2.5,1.1,2.5,2.5c0,1.4-1.1,2.5-2.5,2.5c-1.4,0-2.5-1.1-2.5-2.5
			C164.8,32.1,165.9,31,167.3,31 M167.3,28c-3,0-5.5,2.5-5.5,5.5s2.5,5.5,5.5,5.5s5.5-2.5,5.5-5.5S170.4,28,167.3,28L167.3,28z"/>
	</g>
	<g>
		<circle class="st9" cx="179.8" cy="74.8" r="4"/>
		<path class="st10" d="M179.8,72.3c1.4,0,2.5,1.1,2.5,2.5s-1.1,2.5-2.5,2.5c-1.4,0-2.5-1.1-2.5-2.5S178.4,72.3,179.8,72.3
			 M179.8,69.3c-3,0-5.5,2.5-5.5,5.5s2.5,5.5,5.5,5.5c3,0,5.5-2.5,5.5-5.5S182.8,69.3,179.8,69.3L179.8,69.3z"/>
	</g>
	<g>
		<circle class="st9" cx="180.1" cy="125.3" r="4"/>
		<path class="st10" d="M180.1,122.8c1.4,0,2.5,1.1,2.5,2.5s-1.1,2.5-2.5,2.5c-1.4,0-2.5-1.1-2.5-2.5S178.7,122.8,180.1,122.8
			 M180.1,119.8c-3,0-5.5,2.5-5.5,5.5s2.5,5.5,5.5,5.5s5.5-2.5,5.5-5.5S183.2,119.8,180.1,119.8L180.1,119.8z"/>
	</g>
	<g>
		<circle class="st9" cx="169.1" cy="148.8" r="4"/>
		<path class="st10" d="M169.1,146.3c1.4,0,2.5,1.1,2.5,2.5c0,1.4-1.1,2.5-2.5,2.5c-1.4,0-2.5-1.1-2.5-2.5
			C166.5,147.4,167.7,146.3,169.1,146.3 M169.1,143.3c-3,0-5.5,2.5-5.5,5.5s2.5,5.5,5.5,5.5s5.5-2.5,5.5-5.5
			S172.1,143.3,169.1,143.3L169.1,143.3z"/>
	</g>
	<g>
		<circle class="st9" cx="129.3" cy="170.6" r="4"/>
		<path class="st10" d="M129.3,168.1c1.4,0,2.5,1.1,2.5,2.5c0,1.4-1.1,2.5-2.5,2.5c-1.4,0-2.5-1.1-2.5-2.5
			C126.8,169.2,127.9,168.1,129.3,168.1 M129.3,165.1c-3,0-5.5,2.5-5.5,5.5s2.5,5.5,5.5,5.5c3,0,5.5-2.5,5.5-5.5
			S132.3,165.1,129.3,165.1L129.3,165.1z"/>
	</g>
	<g>
		<circle class="st9" cx="97" cy="183" r="4"/>
		<path class="st10" d="M97,180.5c1.4,0,2.5,1.1,2.5,2.5s-1.1,2.5-2.5,2.5s-2.5-1.1-2.5-2.5S95.6,180.5,97,180.5 M97,177.5
			c-3,0-5.5,2.5-5.5,5.5s2.5,5.5,5.5,5.5c3,0,5.5-2.5,5.5-5.5S100,177.5,97,177.5L97,177.5z"/>
	</g>
	<g>
		<circle class="st9" cx="28.5" cy="221.9" r="4"/>
		<path class="st10" d="M28.5,219.4c1.4,0,2.5,1.1,2.5,2.5c0,1.4-1.1,2.5-2.5,2.5s-2.5-1.1-2.5-2.5
			C25.9,220.5,27.1,219.4,28.5,219.4 M28.5,216.4c-3,0-5.5,2.5-5.5,5.5s2.5,5.5,5.5,5.5c3,0,5.5-2.5,5.5-5.5S31.5,216.4,28.5,216.4
			L28.5,216.4z"/>
	</g>
	<g>
		<circle class="st9" cx="5.5" cy="277.5" r="4"/>
		<path class="st10" d="M5.5,275c1.4,0,2.5,1.1,2.5,2.5c0,1.4-1.1,2.5-2.5,2.5c-1.4,0-2.5-1.1-2.5-2.5C3,276.1,4.1,275,5.5,275
			 M5.5,272c-3,0-5.5,2.5-5.5,5.5c0,3,2.5,5.5,5.5,5.5c3,0,5.5-2.5,5.5-5.5C11,274.5,8.6,272,5.5,272L5.5,272z"/>
	</g>
	<g>
		<circle class="st9" cx="27.7" cy="332.2" r="3.5"/>
		<path class="st10" d="M27.7,329.7c1.4,0,2.5,1.1,2.5,2.5s-1.1,2.5-2.5,2.5c-1.4,0-2.5-1.1-2.5-2.5S26.3,329.7,27.7,329.7
			 M27.7,327.7c-2.5,0-4.5,2-4.5,4.5s2,4.5,4.5,4.5c2.5,0,4.5-2,4.5-4.5S30.2,327.7,27.7,327.7L27.7,327.7z"/>
	</g>
	<g>
		<circle class="st9" cx="87.7" cy="351.5" r="4"/>
		<path class="st10" d="M87.7,349c1.4,0,2.5,1.1,2.5,2.5s-1.1,2.5-2.5,2.5s-2.5-1.1-2.5-2.5S86.3,349,87.7,349 M87.7,346
			c-3,0-5.5,2.5-5.5,5.5s2.5,5.5,5.5,5.5c3,0,5.5-2.5,5.5-5.5S90.8,346,87.7,346L87.7,346z"/>
	</g>
	<g>
		<circle class="st9" cx="142.1" cy="337.5" r="4"/>
		<path class="st10" d="M142.1,335c1.4,0,2.5,1.1,2.5,2.5c0,1.4-1.1,2.5-2.5,2.5c-1.4,0-2.5-1.1-2.5-2.5
			C139.6,336.1,140.7,335,142.1,335 M142.1,332c-3,0-5.5,2.5-5.5,5.5s2.5,5.5,5.5,5.5s5.5-2.5,5.5-5.5S145.2,332,142.1,332
			L142.1,332z"/>
	</g>
	<g>
		<circle class="st9" cx="137.7" cy="309.2" r="4"/>
		<path class="st10" d="M137.7,306.7c1.4,0,2.5,1.1,2.5,2.5s-1.1,2.5-2.5,2.5s-2.5-1.1-2.5-2.5S136.3,306.7,137.7,306.7
			 M137.7,303.7c-3,0-5.5,2.5-5.5,5.5s2.5,5.5,5.5,5.5s5.5-2.5,5.5-5.5S140.8,303.7,137.7,303.7L137.7,303.7z"/>
	</g>
	<g>
		<circle class="st9" cx="108.8" cy="297.3" r="4"/>
		<path class="st10" d="M108.8,294.8c1.4,0,2.5,1.1,2.5,2.5s-1.1,2.5-2.5,2.5s-2.5-1.1-2.5-2.5S107.4,294.8,108.8,294.8
			 M108.8,291.8c-3,0-5.5,2.5-5.5,5.5s2.5,5.5,5.5,5.5s5.5-2.5,5.5-5.5S111.8,291.8,108.8,291.8L108.8,291.8z"/>
	</g>
	<g>
		<circle class="st9" cx="98.1" cy="259.6" r="4"/>
		<path class="st10" d="M98.1,257.1c1.4,0,2.5,1.1,2.5,2.5s-1.1,2.5-2.5,2.5s-2.5-1.1-2.5-2.5S96.7,257.1,98.1,257.1 M98.1,254.1
			c-3,0-5.5,2.5-5.5,5.5s2.5,5.5,5.5,5.5c3,0,5.5-2.5,5.5-5.5S101.1,254.1,98.1,254.1L98.1,254.1z"/>
	</g>
	<g>
		<circle class="st9" cx="109.7" cy="215.6" r="4"/>
		<path class="st10" d="M109.7,213.1c1.4,0,2.5,1.1,2.5,2.5s-1.1,2.5-2.5,2.5c-1.4,0-2.5-1.1-2.5-2.5S108.3,213.1,109.7,213.1
			 M109.7,210.1c-3,0-5.5,2.5-5.5,5.5s2.5,5.5,5.5,5.5s5.5-2.5,5.5-5.5S112.7,210.1,109.7,210.1L109.7,210.1z"/>
	</g>
	<g>
		<circle class="st9" cx="141.8" cy="183.6" r="4"/>
		<path class="st10" d="M141.8,181c1.4,0,2.5,1.1,2.5,2.5s-1.1,2.5-2.5,2.5c-1.4,0-2.5-1.1-2.5-2.5S140.4,181,141.8,181 M141.8,178
			c-3,0-5.5,2.5-5.5,5.5s2.5,5.5,5.5,5.5c3,0,5.5-2.5,5.5-5.5S144.9,178,141.8,178L141.8,178z"/>
	</g>
	<g>
		<circle class="st9" cx="168.1" cy="165.6" r="4"/>
		<path class="st10" d="M168.1,163.1c1.4,0,2.5,1.1,2.5,2.5c0,1.4-1.1,2.5-2.5,2.5c-1.4,0-2.5-1.1-2.5-2.5
			C165.6,164.2,166.7,163.1,168.1,163.1 M168.1,160.1c-3,0-5.5,2.5-5.5,5.5s2.5,5.5,5.5,5.5s5.5-2.5,5.5-5.5
			S171.2,160.1,168.1,160.1L168.1,160.1z"/>
	</g>
	<g>
		<path class="st9" d="M181.1,155.7c-1,0-2-0.4-2.7-1.1c-0.8-0.7-1.2-1.7-1.3-2.8c0-1.1,0.3-2.1,1.1-2.9c0.8-0.8,1.8-1.3,2.9-1.3
			c1,0,2,0.4,2.7,1.1c0.8,0.7,1.2,1.7,1.3,2.8c0,1.1-0.3,2.1-1.1,2.9C183.3,155.3,182.2,155.7,181.1,155.7L181.1,155.7z"/>
		<path class="st10" d="M181.1,149.2c0.6,0,1.2,0.2,1.7,0.7c1,1,1.1,2.5,0.1,3.6c-0.5,0.5-1.2,0.8-1.8,0.8c-0.6,0-1.2-0.2-1.7-0.7
			c-1-1-1.1-2.5-0.1-3.6C179.8,149.5,180.4,149.2,181.1,149.2 M181.1,146.2c-1.5,0-3,0.6-4,1.8c-2.1,2.2-2,5.7,0.3,7.8
			c1,1,2.4,1.5,3.8,1.5c1.5,0,3-0.6,4-1.8c2.1-2.2,2-5.7-0.3-7.8C183.9,146.7,182.5,146.2,181.1,146.2L181.1,146.2z"/>
	</g>
	<g>
		<path class="st9" d="M180.1,286.6c-1,0-2-0.4-2.7-1.1c-0.8-0.7-1.2-1.7-1.3-2.8c0-1.1,0.3-2.1,1.1-2.9c0.8-0.8,1.8-1.3,2.9-1.3
			c1,0,2,0.4,2.7,1.1c1.6,1.5,1.7,4.1,0.2,5.7C182.3,286.1,181.2,286.6,180.1,286.6L180.1,286.6z"/>
		<path class="st10" d="M180.1,280c0.6,0,1.2,0.2,1.7,0.7c1,1,1.1,2.5,0.1,3.6c-0.5,0.5-1.2,0.8-1.8,0.8c-0.6,0-1.2-0.2-1.7-0.7
			c-1-1-1.1-2.5-0.1-3.6C178.7,280.3,179.4,280,180.1,280 M180.1,277c-1.5,0-3,0.6-4,1.8c-1,1.1-1.5,2.5-1.5,4
			c0,1.5,0.7,2.8,1.7,3.8c1,1,2.4,1.5,3.8,1.5c1.5,0,3-0.6,4-1.8c1-1.1,1.5-2.5,1.5-4s-0.7-2.8-1.7-3.8
			C182.8,277.6,181.5,277,180.1,277L180.1,277z"/>
	</g>
	<g>
		<path class="st9" d="M181.7,303.5c-1,0-2-0.4-2.7-1.1c-0.8-0.7-1.2-1.7-1.3-2.8c0-1.1,0.3-2.1,1.1-2.9c0.8-0.8,1.8-1.3,2.9-1.3
			c1,0,2,0.4,2.7,1.1c0.8,0.7,1.2,1.7,1.3,2.8c0,1.1-0.3,2.1-1.1,2.9C183.9,303,182.8,303.5,181.7,303.5L181.7,303.5z"/>
		<path class="st10" d="M181.7,297c0.6,0,1.2,0.2,1.7,0.7c1,1,1.1,2.5,0.1,3.6c-0.5,0.5-1.2,0.8-1.8,0.8c-0.6,0-1.2-0.2-1.7-0.7
			c-1-1-1.1-2.5-0.1-3.6C180.3,297.2,181,297,181.7,297 M181.7,294c-1.5,0-3,0.6-4,1.8c-2.1,2.2-2,5.7,0.3,7.8c1,1,2.4,1.5,3.8,1.5
			c1.5,0,3-0.6,4-1.8c1-1.1,1.5-2.5,1.5-4c0-1.5-0.7-2.8-1.7-3.8C184.4,294.5,183.1,294,181.7,294L181.7,294z"/>
	</g>
	<g>
		<path class="st9" d="M196.3,341.1c-1,0-2-0.4-2.7-1.1c-0.8-0.7-1.2-1.7-1.3-2.8c0-1.1,0.3-2.1,1.1-2.9c0.8-0.8,1.8-1.3,2.9-1.3
			c1,0,2,0.4,2.7,1.1c0.8,0.7,1.2,1.7,1.3,2.8c0,1.1-0.3,2.1-1.1,2.9C198.5,340.6,197.5,341.1,196.3,341.1L196.3,341.1z"/>
		<path class="st10" d="M196.3,334.5c0.6,0,1.2,0.2,1.7,0.7c1,1,1.1,2.5,0.1,3.6c-0.5,0.5-1.2,0.8-1.8,0.8c-0.6,0-1.2-0.2-1.7-0.7
			c-1-1-1.1-2.5-0.1-3.6C195,334.8,195.7,334.5,196.3,334.5 M196.3,331.5c-1.5,0-3,0.6-4,1.8c-2.1,2.2-2,5.7,0.3,7.8
			c1,1,2.4,1.5,3.8,1.5c1.5,0,3-0.6,4-1.8c2.1-2.2,2-5.7-0.3-7.8C199.1,332.1,197.7,331.5,196.3,331.5L196.3,331.5z"/>
	</g>
	<g>
		<path class="st9" d="M244.6,355.5c-1,0-2-0.4-2.7-1.1c-0.8-0.7-1.2-1.7-1.3-2.8c0-1.1,0.3-2.1,1.1-2.9c0.8-0.8,1.8-1.3,2.9-1.3
			c1,0,2,0.4,2.7,1.1c1.6,1.5,1.7,4.1,0.2,5.7C246.8,355.1,245.7,355.5,244.6,355.5L244.6,355.5z"/>
		<path class="st10" d="M244.6,349c0.6,0,1.2,0.2,1.7,0.7c1,1,1.1,2.5,0.1,3.6c-0.5,0.5-1.2,0.8-1.8,0.8c-0.6,0-1.2-0.2-1.7-0.7
			c-1-1-1.1-2.5-0.1-3.6C243.3,349.2,244,349,244.6,349 M244.6,346c-1.5,0-3,0.6-4,1.8c-2.1,2.2-2,5.7,0.3,7.8c1,1,2.4,1.5,3.8,1.5
			c1.5,0,3-0.6,4-1.8c2.1-2.2,2-5.7-0.3-7.8C247.4,346.5,246,346,244.6,346L244.6,346z"/>
	</g>
	<g>
		<path class="st9" d="M310.1,321c-1,0-2-0.4-2.7-1.1c-0.8-0.7-1.2-1.7-1.3-2.8c0-1.1,0.3-2.1,1.1-2.9c0.8-0.8,1.8-1.3,2.9-1.3
			c1,0,2,0.4,2.7,1.1c1.6,1.5,1.7,4.1,0.2,5.7C312.3,320.5,311.2,321,310.1,321L310.1,321z"/>
		<path class="st10" d="M310.1,314.4c0.6,0,1.2,0.2,1.7,0.7c1,1,1.1,2.5,0.1,3.6c-0.5,0.5-1.2,0.8-1.8,0.8c-0.6,0-1.2-0.2-1.7-0.7
			c-1-1-1.1-2.5-0.1-3.6C308.7,314.7,309.4,314.4,310.1,314.4 M310.1,311.4c-1.5,0-3,0.6-4,1.8c-2.1,2.2-2,5.7,0.3,7.8
			c1,1,2.4,1.5,3.8,1.5c1.5,0,3-0.6,4-1.8c2.1-2.2,2-5.7-0.3-7.8C312.8,312,311.5,311.4,310.1,311.4L310.1,311.4z"/>
	</g>
	<g>
		<circle class="st9" cx="267.8" cy="67.5" r="4"/>
		<path class="st10" d="M267.8,65c1.4,0,2.5,1.1,2.5,2.5c0,1.4-1.1,2.5-2.5,2.5s-2.5-1.1-2.5-2.5C265.3,66.2,266.4,65,267.8,65
			 M267.8,62c-3,0-5.5,2.5-5.5,5.5s2.5,5.5,5.5,5.5s5.5-2.5,5.5-5.5S270.9,62,267.8,62L267.8,62z"/>
	</g>
	<g>
		<circle class="st9" cx="249.5" cy="34.7" r="4"/>
		<path class="st10" d="M249.5,32.2c1.4,0,2.5,1.1,2.5,2.5s-1.1,2.5-2.5,2.5c-1.4,0-2.5-1.1-2.5-2.5S248.1,32.2,249.5,32.2
			 M249.5,29.2c-3,0-5.5,2.5-5.5,5.5s2.5,5.5,5.5,5.5c3,0,5.5-2.5,5.5-5.5S252.5,29.2,249.5,29.2L249.5,29.2z"/>
	</g>
	<g>
		<circle class="st9" cx="157.2" cy="5.5" r="4"/>
		<path class="st10" d="M157.2,3c1.4,0,2.5,1.1,2.5,2.5S158.6,8,157.2,8c-1.4,0-2.5-1.1-2.5-2.5S155.8,3,157.2,3 M157.2,0
			c-3,0-5.5,2.5-5.5,5.5s2.5,5.5,5.5,5.5s5.5-2.5,5.5-5.5S160.2,0,157.2,0L157.2,0z"/>
	</g>
	<g>
		<circle class="st9" cx="59.7" cy="27" r="4"/>
		<path class="st10" d="M59.7,24.5c1.4,0,2.5,1.1,2.5,2.5s-1.1,2.5-2.5,2.5c-1.4,0-2.5-1.1-2.5-2.5S58.4,24.5,59.7,24.5 M59.7,21.5
			c-3,0-5.5,2.5-5.5,5.5s2.5,5.5,5.5,5.5s5.5-2.5,5.5-5.5S62.8,21.5,59.7,21.5L59.7,21.5z"/>
	</g>
	<g>
		<circle class="st9" cx="22.2" cy="81.5" r="4"/>
		<path class="st10" d="M22.2,78.9c1.4,0,2.5,1.1,2.5,2.5S23.6,84,22.2,84s-2.5-1.1-2.5-2.5S20.8,78.9,22.2,78.9 M22.2,75.9
			c-3,0-5.5,2.5-5.5,5.5s2.5,5.5,5.5,5.5s5.5-2.5,5.5-5.5S25.2,75.9,22.2,75.9L22.2,75.9z"/>
	</g>
	<g>
		<circle class="st9" cx="34.5" cy="117.2" r="4"/>
		<path class="st10" d="M34.5,114.7c1.4,0,2.5,1.1,2.5,2.5s-1.1,2.5-2.5,2.5c-1.4,0-2.5-1.1-2.5-2.5S33.1,114.7,34.5,114.7
			 M34.5,111.7c-3,0-5.5,2.5-5.5,5.5s2.5,5.5,5.5,5.5s5.5-2.5,5.5-5.5S37.5,111.7,34.5,111.7L34.5,111.7z"/>
	</g>
	<g>
		<circle class="st9" cx="69.2" cy="131.3" r="4"/>
		<path class="st10" d="M69.2,128.8c1.4,0,2.5,1.1,2.5,2.5s-1.1,2.5-2.5,2.5c-1.4,0-2.5-1.1-2.5-2.5S67.8,128.8,69.2,128.8
			 M69.2,125.8c-3,0-5.5,2.5-5.5,5.5s2.5,5.5,5.5,5.5c3,0,5.5-2.5,5.5-5.5S72.2,125.8,69.2,125.8L69.2,125.8z"/>
	</g>
	<g>
		<circle class="st9" cx="96.8" cy="124.3" r="4"/>
		<path class="st10" d="M96.8,121.8c1.4,0,2.5,1.1,2.5,2.5c0,1.4-1.1,2.5-2.5,2.5c-1.4,0-2.5-1.1-2.5-2.5
			C94.3,122.9,95.4,121.8,96.8,121.8 M96.8,118.8c-3,0-5.5,2.5-5.5,5.5s2.5,5.5,5.5,5.5c3,0,5.5-2.5,5.5-5.5S99.8,118.8,96.8,118.8
			L96.8,118.8z"/>
	</g>
	<g>
		<circle class="st9" cx="113.8" cy="106.9" r="4"/>
		<path class="st10" d="M113.8,104.3c1.4,0,2.5,1.1,2.5,2.5s-1.1,2.5-2.5,2.5s-2.5-1.1-2.5-2.5S112.4,104.3,113.8,104.3
			 M113.8,101.3c-3,0-5.5,2.5-5.5,5.5s2.5,5.5,5.5,5.5s5.5-2.5,5.5-5.5S116.8,101.3,113.8,101.3L113.8,101.3z"/>
	</g>
	<g>
		<circle class="st9" cx="119.8" cy="84.6" r="4"/>
		<path class="st10" d="M119.8,82.1c1.4,0,2.5,1.1,2.5,2.5s-1.1,2.5-2.5,2.5s-2.5-1.1-2.5-2.5S118.4,82.1,119.8,82.1 M119.8,79.1
			c-3,0-5.5,2.5-5.5,5.5s2.5,5.5,5.5,5.5s5.5-2.5,5.5-5.5S122.9,79.1,119.8,79.1L119.8,79.1z"/>
	</g>
	<g>
		<circle class="st9" cx="109.8" cy="53.1" r="4"/>
		<path class="st10" d="M109.8,50.6c1.4,0,2.5,1.1,2.5,2.5s-1.1,2.5-2.5,2.5c-1.4,0-2.5-1.1-2.5-2.5S108.4,50.6,109.8,50.6
			 M109.8,47.6c-3,0-5.5,2.5-5.5,5.5s2.5,5.5,5.5,5.5c3,0,5.5-2.5,5.5-5.5S112.8,47.6,109.8,47.6L109.8,47.6z"/>
	</g>
	<g>
		<circle class="st9" cx="83.2" cy="34.4" r="4"/>
		<path class="st10" d="M83.2,31.8c1.4,0,2.5,1.1,2.5,2.5c0,1.4-1.1,2.5-2.5,2.5s-2.5-1.1-2.5-2.5C80.7,33,81.8,31.8,83.2,31.8
			 M83.2,28.8c-3,0-5.5,2.5-5.5,5.5s2.5,5.5,5.5,5.5s5.5-2.5,5.5-5.5S86.3,28.8,83.2,28.8L83.2,28.8z"/>
	</g>
</g>
</svg>
