<?xml version="1.0" encoding="utf-8"?>
<!-- Generator: Adobe Illustrator 19.2.1, SVG Export Plug-In . SVG Version: 6.00 Build 0)  -->
<svg version="1.1" xmlns="http://www.w3.org/2000/svg" xmlns:xlink="http://www.w3.org/1999/xlink" x="0px" y="0px"
	 viewBox="0 0 499.7 312.3" style="enable-background:new 0 0 499.7 312.3;" xml:space="preserve">
<style type="text/css">
	.st0{fill:#1A1A1A;}
	.st1{fill:#FFFFFF;}
	.st2{fill:#F2D031;}
	.st3{fill:#FFD200;}
	.st4{fill:#F4F7FF;}
	.st5{clip-path:url(#SVGID_2_);}
	.st6{fill:#F4F7FF;stroke:#1A1A1A;stroke-width:3;stroke-miterlimit:10;}
</style>
<g id="Layer_3">
	<g>
		<path class="st0" d="M343.8,312.3l-201.5,0c-0.7,0-1.2-0.7-1.2-1.5v0c0-0.8,0.6-1.5,1.2-1.5l201.5,0c0.7,0,1.2,0.7,1.2,1.5v0
			C345,311.7,344.4,312.3,343.8,312.3z"/>
	</g>
	<g>
		<path class="st0" d="M483.8,312.3l-107.5,0c-0.7,0-1.2-0.7-1.2-1.5v0c0-0.8,0.6-1.5,1.2-1.5l107.5,0c0.7,0,1.2,0.7,1.2,1.5v0
			C485,311.7,484.4,312.3,483.8,312.3z"/>
	</g>
	<g>
		<path class="st0" d="M108.8,312.3l-107.5,0c-0.7,0-1.2-0.7-1.2-1.5v0c0-0.8,0.6-1.5,1.2-1.5l107.5,0c0.7,0,1.2,0.7,1.2,1.5v0
			C110,311.7,109.4,312.3,108.8,312.3z"/>
	</g>
</g>
<g id="Layer_4">
	<g>
		<g>
			<path class="st1" d="M105.3,257.8c-1.9,0-3.5-1.6-3.5-3.5V5c0-1.9,1.6-3.5,3.5-3.5H358c1.9,0,3.5,1.6,3.5,3.5v236.3
				c0,9.1-7.4,16.5-16.5,16.5H105.3z"/>
		</g>
		<g>
			<path class="st0" d="M358,3c1.1,0,2,0.9,2,2v236.3c0,8.3-6.7,15-15,15H105.3c-1.1,0-2-0.9-2-2V5c0-1.1,0.9-2,2-2H358 M358,0
				H105.3c-2.8,0-5,2.3-5,5v249.3c0,2.8,2.3,5,5,5H345c9.9,0,18-8.1,18-18V5C363,2.3,360.7,0,358,0L358,0z"/>
		</g>
	</g>
	<g>
		<g>
			<circle class="st2" cx="119.6" cy="13.7" r="4.5"/>
		</g>
		<g>
			<path class="st0" d="M119.6,10.7c1.7,0,3,1.3,3,3s-1.3,3-3,3s-3-1.3-3-3S117.9,10.7,119.6,10.7 M119.6,7.7c-3.3,0-6,2.7-6,6
				s2.7,6,6,6s6-2.7,6-6S122.9,7.7,119.6,7.7L119.6,7.7z"/>
		</g>
	</g>
	<g>
		<g>
			<circle class="st2" cx="136.6" cy="13.7" r="4.5"/>
		</g>
		<g>
			<path class="st0" d="M136.6,10.7c1.7,0,3,1.3,3,3s-1.3,3-3,3s-3-1.3-3-3S134.9,10.7,136.6,10.7 M136.6,7.7c-3.3,0-6,2.7-6,6
				s2.7,6,6,6s6-2.7,6-6S139.9,7.7,136.6,7.7L136.6,7.7z"/>
		</g>
	</g>
	<g>
		<g>
			<circle class="st2" cx="153.6" cy="13.7" r="4.5"/>
		</g>
		<g>
			<path class="st0" d="M153.6,10.7c1.7,0,3,1.3,3,3s-1.3,3-3,3s-3-1.3-3-3S151.9,10.7,153.6,10.7 M153.6,7.7c-3.3,0-6,2.7-6,6
				s2.7,6,6,6s6-2.7,6-6S156.9,7.7,153.6,7.7L153.6,7.7z"/>
		</g>
	</g>
	<g>
		<g>
			<polygon class="st0" points="361.2,24.7 101.8,24.7 101.8,27.7 361.2,27.7 361.2,24.7 			"/>
		</g>
	</g>
	<g>
		<g>
			<path class="st3" d="M332.6,243.7v-6.5H80.3v2.7c0,9.9,7.1,18,16,18l249,0.1C338.3,258,332.6,251.5,332.6,243.7z"/>
			<path class="st0" d="M345.3,259.5L345.3,259.5l-249-0.1c-9.6,0-17.5-8.7-17.5-19.5v-4.2h255.2v8c0,6.9,5.1,12.8,11.2,12.8h0
				L345.3,259.5z M81.8,238.7v1.2c0,9.1,6.5,16.5,14.5,16.5l240.8,0.1c-3.6-2.9-6-7.6-6-12.8v-5H81.8z"/>
		</g>
	</g>
	<g id="Layer_11">
		<g>
			<g>
				<path class="st4" d="M168.2,196.7c-1.9,0-3.5-1.6-3.5-3.5V65.6c0-1.9,1.6-3.5,3.5-3.5h127.6c1.9,0,3.5,1.6,3.5,3.5v127.6
					c0,1.9-1.6,3.5-3.5,3.5H168.2z"/>
			</g>
			<g>
				<path class="st0" d="M295.8,63.6c1.1,0,2,0.9,2,2v127.6c0,1.1-0.9,2-2,2H168.2c-1.1,0-2-0.9-2-2V65.6c0-1.1,0.9-2,2-2H295.8
					 M295.8,60.6H168.2c-2.8,0-5,2.2-5,5v127.6c0,2.8,2.2,5,5,5h127.6c2.8,0,5-2.2,5-5V65.6C300.8,62.8,298.6,60.6,295.8,60.6
					L295.8,60.6z"/>
			</g>
		</g>
		<g id="Layer_12">
		</g>
		<g>
			<defs>
				<path id="SVGID_1_" d="M295.8,198.2H168.2c-2.8,0-5-2.2-5-5V65.6c0-2.8,2.2-5,5-5h127.6c2.8,0,5,2.2,5,5v127.6
					C300.8,196,298.6,198.2,295.8,198.2z"/>
			</defs>
			<clipPath id="SVGID_2_">
				<use xlink:href="#SVGID_1_"  style="overflow:visible;"/>
			</clipPath>
			<g class="st5">
				<path class="st6" d="M227.2,198.8"/>
			</g>
			<g class="st5">
				<polygon class="st0" points="139.3,198.7 137.1,196.6 199.6,134.1 262.1,196.6 260,198.7 199.6,138.4 				"/>
			</g>
			<g class="st5">
				<polygon class="st0" points="314,179.7 253.6,119.3 218.2,154.8 216,152.6 253.6,115.1 316.1,177.6 				"/>
			</g>
			<g class="st5">
				<path class="st6" d="M165.7,137.3"/>
			</g>
			<g class="st5">
				<path class="st6" d="M227.2,198.8"/>
			</g>
		</g>
		<g>
			<g>
				<path class="st3" d="M217.4,125.1c-5.1,0-9.2-4.1-9.2-9.2s4.1-9.2,9.2-9.2s9.2,4.1,9.2,9.2S222.5,125.1,217.4,125.1z"/>
			</g>
			<g>
				<g>
					<path class="st0" d="M217.4,108.1c4.3,0,7.7,3.5,7.7,7.7s-3.5,7.7-7.7,7.7c-4.3,0-7.7-3.5-7.7-7.7S213.2,108.1,217.4,108.1
						 M217.4,105.1c-5.9,0-10.7,4.8-10.7,10.7c0,5.9,4.8,10.7,10.7,10.7s10.7-4.8,10.7-10.7C228.2,109.9,223.4,105.1,217.4,105.1
						L217.4,105.1z"/>
				</g>
			</g>
		</g>
	</g>
</g>
<g id="Layer_9">
	<g>
		<g>
			<path class="st3" d="M53.9,178.8c4.5,0,7.9-0.1,10.2-0.4c1.4-0.2,3.1-0.4,5.1-0.6c20.5-2.4,68.5-7.9,78.4-25.1
				c2.2-3.9,2.3-8,0.3-12.7c-4.5-10.2-13.7-11.4-21.8-12.4c-6.2-0.8-12-1.5-14.7-6.2c-2.8-4.8-1.6-12.9,4-26.3
				c2.6-6.3,2.4-12-0.6-16.5c-3.6-5.4-10.8-8.7-18.9-8.7c-7.3,0-13.7,2.7-17.6,7.5c-3.9,4.8-5.1,11.5-3.4,19.4
				c3.3,15.9,4.4,38.6-9.2,56.3c-7.3,9.4-15.6,13.4-17.7,14.3l-7.3,11.1C43.7,178.6,48.9,178.8,53.9,178.8L53.9,178.8z"/>
		</g>
		<g>
			<path class="st0" d="M95.8,71.4c7.5,0,14.5,3.1,17.7,8c2.8,4.1,2.9,9.2,0.5,15.1c-5.7,13.8-6.9,22.3-3.9,27.6
				c3.1,5.3,9.2,6.1,15.8,6.9c8.1,1,16.5,2.1,20.7,11.5c1.8,4.2,1.8,8-0.2,11.4c-9.5,16.5-58.7,22.2-77.3,24.3
				c-2,0.2-3.7,0.4-5.1,0.6c-2.3,0.3-5.6,0.4-10.1,0.4c-3.8,0-7.6-0.1-10.6-0.2l5.6-8.5c2.7-1.2,10.8-5.4,17.8-14.6
				c14-18.1,12.9-41.3,9.5-57.5c-1.5-7.5-0.5-13.7,3.1-18.1C83,73.9,89,71.4,95.8,71.4 M95.8,68.4c-13.3,0-26.6,8.8-22.5,28.7
				c11.3,54.8-26.4,69.1-26.4,69.1l-9,13.7c0,0,8.2,0.4,16,0.4c3.9,0,7.7-0.1,10.4-0.4c19.8-2.5,98.6-9.1,84.9-40.5
				c-11.6-26.5-52.2,3.6-32.5-43.7C123.9,78.4,109.9,68.4,95.8,68.4L95.8,68.4z"/>
		</g>
	</g>
	<g>
		<g>
			<path class="st3" d="M135.1,120.8c5.2,0,9.8-1.7,12.5-4.6c3.7-4,5.4-8.2,7.1-12.2c3.2-7.7,6.2-14.9,21.7-18
				c18.4-3.6,19.5-13.1,19.1-17.1c-0.8-8.3-9.3-15.6-18.1-15.6c-8.4,0-16,6.1-21.5,17.1c-5.3,10.5-7.1,11.8-14.7,17.2
				c-2.8,2-6.3,4.5-11.2,8.3c-8.2,6.3-11.7,12.4-10.1,17.2C121.4,117.5,127.8,120.8,135.1,120.8z"/>
		</g>
		<g>
			<path class="st0" d="M177.4,51.8l0,3c9,0,16,7.5,16.6,14.2c0.7,7.5-5.8,13.1-17.9,15.5c-16.4,3.2-19.6,11.2-22.8,18.9
				c-1.6,3.9-3.3,8-6.8,11.8c-2.4,2.6-6.6,4.1-11.4,4.1c-6.7,0-12.5-2.8-13.8-6.7c-1.4-4.1,2-9.6,9.6-15.5c4.8-3.7,8.3-6.2,11.1-8.2
				c8-5.7,9.9-7.3,15.2-17.7c5.3-10.5,12.4-16.3,20.2-16.3V51.8 M177.4,51.8c-7.7,0-16.3,4.8-22.9,17.9c-7,13.9-7.4,10.9-25.5,24.9
				c-21.4,16.6-7.6,27.6,6,27.6c5.2,0,10.4-1.6,13.6-5.1c11.1-12,5.2-25.3,28-29.7C210.3,80.9,196.4,51.8,177.4,51.8L177.4,51.8z"/>
		</g>
	</g>
	<g>
		<g>
			<path class="st3" d="M129.8,83.9c1.1,0,2.3-0.5,3.7-1.5c5.9-4.2,11.7-8.9,11.3-15.1c-0.4-6-5.4-10.7-11.4-10.7
				c-0.3,0-0.5,0-0.8,0c-3.7,0.2-6,2.3-7.3,4c-1.7,2.4-2.6,5.4-2.4,8.6C123.3,75.2,125.4,83.9,129.8,83.9L129.8,83.9z"/>
		</g>
		<g>
			<g>
				<path class="st0" d="M133.3,58.2c5.2,0,9.6,4.1,9.9,9.3c0.4,5.4-5.1,9.8-10.6,13.7c-1.1,0.8-2.1,1.2-2.8,1.2
					c-2.4,0-4.9-6-5.4-13.2c-0.2-2.8,0.6-5.6,2.1-7.6c1.1-1.4,3-3.2,6.1-3.4C132.9,58.2,133.1,58.2,133.3,58.2 M133.3,55.2
					c-0.3,0-0.6,0-0.9,0c-7.1,0.5-11.5,7.1-11,14.2c0.4,5.8,2.6,16,8.4,16c1.3,0,2.8-0.5,4.5-1.7c5.8-4.1,12.4-9.3,11.9-16.4
					C145.8,60.4,140.1,55.2,133.3,55.2L133.3,55.2z"/>
			</g>
		</g>
	</g>
	<g>
		<g>
			<path class="st3" d="M45.6,232.7c1.7,0,3.4-0.7,4.6-1.9l28.4-28.4c1.2-1.2,1.9-2.9,1.9-4.6c0-1.7-0.7-3.4-1.9-4.6l-36.8-36.8
				c-1.2-1.2-2.9-1.9-4.6-1.9c-1.7,0-3.4,0.7-4.6,1.9L4.2,184.8c-1.2,1.2-1.9,2.9-1.9,4.6c0,1.7,0.7,3.4,1.9,4.6L41,230.8
				C42.2,232,43.8,232.7,45.6,232.7z"/>
		</g>
		<g>
			<path class="st0" d="M37.2,156c1.3,0,2.6,0.5,3.5,1.5l36.8,36.8c1.9,1.9,1.9,5.1,0,7.1l-28.4,28.4c-0.9,0.9-2.2,1.5-3.5,1.5
				s-2.6-0.5-3.5-1.5L5.3,193c-1.9-1.9-1.9-5.1,0-7.1l28.4-28.4C34.6,156.5,35.9,156,37.2,156 M37.2,153c-2,0-4.1,0.8-5.7,2.3
				L3.1,183.8c-3.1,3.1-3.1,8.2,0,11.3l36.8,36.8c1.6,1.6,3.6,2.3,5.7,2.3s4.1-0.8,5.7-2.3l28.4-28.4c3.1-3.1,3.1-8.2,0-11.3
				l-36.8-36.8C41.3,153.8,39.3,153,37.2,153L37.2,153z"/>
		</g>
	</g>
	<g>
		<g>
			<path class="st1" d="M45.5,220.7c0.9,0,1.8-0.4,2.5-1l12.6-12.6c5.3-5.3,5.3-13.8,0-19.1l-13.7-13.7c-2.5-2.5-5.9-4-9.5-4
				c-3.6,0-7,1.4-9.5,4l-12.6,12.6c-1.4,1.4-1.4,3.6,0,5L43,219.7C43.6,220.3,44.5,220.7,45.5,220.7z"/>
		</g>
		<g>
			<path class="st0" d="M37.2,171.9c3.2,0,6.2,1.2,8.5,3.5l13.7,13.7c4.7,4.7,4.7,12.3,0,17l-12.6,12.6c-0.4,0.4-0.9,0.6-1.4,0.6
				c-0.5,0-1-0.2-1.4-0.6l-27.8-27.8c-0.4-0.4-0.6-0.9-0.6-1.4c0-0.5,0.2-1,0.6-1.4l12.6-12.6C31,173.1,34,171.9,37.2,171.9
				 M37.2,168.9c-3.8,0-7.7,1.5-10.6,4.4l-12.6,12.6c-2,2-2,5.1,0,7.1l27.8,27.8c1,1,2.3,1.5,3.5,1.5c1.3,0,2.6-0.5,3.5-1.5
				l12.6-12.6c5.9-5.9,5.9-15.4,0-21.2l-13.7-13.7C44.9,170.4,41.1,168.9,37.2,168.9L37.2,168.9z"/>
		</g>
	</g>
	<g>
		<g>
			<path class="st3" d="M80.2,186.7c1.4-1.4,1.4-3.6,0-5L54.5,156c-0.7-0.7-1.5-1-2.5-1s-1.8,0.4-2.5,1l-3.8,3.8l30.6,30.6
				L80.2,186.7z"/>
		</g>
		<g>
			<path class="st0" d="M52,156.5c0.5,0,1,0.2,1.4,0.6l25.7,25.7c0.8,0.8,0.8,2.1,0,2.8l-2.8,2.8l-28.5-28.5l2.8-2.8
				C51,156.7,51.5,156.5,52,156.5 M52,153.5c-1.3,0-2.6,0.5-3.5,1.5l-4.9,4.9l32.8,32.8l4.9-4.9c1.9-1.9,1.9-5.1,0-7.1L55.5,155
				C54.6,154,53.3,153.5,52,153.5L52,153.5z"/>
		</g>
	</g>
</g>
<g id="Layer_13">
	<g>
		<g>
			<g>
				<path class="st3" d="M381.5,152.5c0.8,0,1.6-0.2,2.4-0.5c1.6-0.7,3.6-2.5,5-4.4c1.4-2,2-3.8,1.5-4.9c-0.6-1.3-3-2.1-6-2.1
					c-2,0-4,0.4-5.3,1c-1.4,0.6-2.5,1.8-3,3.2c-0.5,1.4-0.5,3,0.2,4.4C377.2,151.2,379.3,152.5,381.5,152.5L381.5,152.5z"/>
			</g>
			<g>
				<g>
					<path class="st0" d="M384.4,142c3,0,4.5,0.9,4.6,1.3c0.5,1.1-2.3,5.7-5.8,7.3c-0.6,0.3-1.2,0.4-1.8,0.4c-1.7,0-3.2-1-3.9-2.5
						c-1-2.1,0-4.7,2.1-5.6C380.8,142.4,382.7,142,384.4,142 M384.4,139c-2.2,0-4.4,0.4-5.9,1.1c-3.6,1.7-5.3,6-3.6,9.6
						c1.2,2.7,3.9,4.3,6.6,4.3c1,0,2-0.2,3-0.7c3.6-1.7,8.9-7.6,7.3-11.3C390.8,139.9,387.6,139,384.4,139L384.4,139z"/>
				</g>
			</g>
		</g>
		<g>
			<g>
				<path class="st3" d="M441.6,167.8C420,180,423.4,56.7,363.1,101c-31.3,23-35.4-19.7-65-0.9c-31.7,20.1-26.8,71.1,6.1,80.6
					c40.2,11.7,43.9-54.2,80.6-49.2c27.1,3.7,54.3,47.1,71.6,49C478.7,183,445.9,165.4,441.6,167.8z"/>
				<path class="st0" d="M303.8,182.2c-14.8-4.3-25.6-17.6-28-34.7c-2.8-19.5,5.7-38.6,21.5-48.6c15.2-9.6,24.1-4,32.7,1.5
					c8.7,5.5,16.9,10.7,32.3-0.5c12.1-8.9,22.4-11.8,31.4-8.9c16.7,5.4,24.8,30,31.2,49.8c3.1,9.6,6.1,18.7,9.4,23.4
					c1,1,2.1,1.9,3.1,2.8c0,0,0.1,0,0.1,0c1,0.4,2.1,0.3,3.3-0.4c3.7-2.1,18.2,5.1,22.6,9.2c0.7,0.6,2.8,2.6,1.9,4.6
					c-0.8,1.8-3.6,2.4-9.1,1.7c-6.1-0.7-12.9-5.8-20.5-12.6c-1.3-0.7-2.5-1.8-3.6-3.3c-1.7-1.5-3.4-3.2-5.1-4.8
					C413.9,149,399,135,384.6,133c-16.6-2.3-26,10.7-36.1,24.5c-9.4,12.9-19.1,26.2-35.1,26.2C310.4,183.6,307.2,183.2,303.8,182.2z
					 M385,130c14.9,2,29.7,15.6,42.8,27.9c-1.9-4.6-3.7-10.1-5.7-16.3c-6.3-19.2-14-43-29.3-47.9c-8-2.6-17.6,0.3-28.7,8.4
					c-7.6,5.6-14.3,7.9-20.7,7.1c-5.7-0.7-10.4-3.6-14.9-6.5c-8.2-5.2-15.9-10.1-29.5-1.5c-14.9,9.4-22.8,27.3-20.2,45.7
					c2.3,16.2,12,28.2,25.9,32.3c20,5.8,30.4-8.5,41.5-23.6c9.3-12.8,18.9-26,34.8-26C382.2,129.7,383.5,129.8,385,130z
					 M454.8,173.5c-6.2-3.3-11.5-4.8-12.5-4.4c-0.5,0.3-1,0.5-1.6,0.7c5.9,5,11.3,8.7,15.8,9.2c3.8,0.4,5.4,0.2,5.9,0
					C461.9,178.2,459.7,176.2,454.8,173.5z"/>
			</g>
			<g>
				<g>
					<path class="st3" d="M459.6,220c1.7,0,3.4-0.7,4.6-1.9l32.1-32.1c2.5-2.5,2.5-6.7,0-9.2l-48.2-48.2c-2.5-2.5-5.9-4-9.5-4
						s-7,1.4-9.5,4l-22.2,22.2c-2.5,2.5-4,5.9-4,9.5s1.4,7,4,9.5l48.2,48.2C456.3,219.3,457.9,220,459.6,220z"/>
				</g>
				<g>
					<path class="st0" d="M438.5,126.1c3.2,0,6.2,1.2,8.5,3.5l48.2,48.2c1.9,1.9,1.9,5.1,0,7.1L463.2,217c-0.9,0.9-2.2,1.5-3.5,1.5
						c-1.3,0-2.6-0.5-3.5-1.5l-48.2-48.2c-4.7-4.7-4.7-12.3,0-17l22.2-22.2C432.3,127.4,435.3,126.1,438.5,126.1 M438.5,123.1
						c-3.8,0-7.7,1.5-10.6,4.4l-22.2,22.2c-5.9,5.9-5.9,15.4,0,21.2l48.2,48.2c1.6,1.6,3.6,2.3,5.7,2.3s4.1-0.8,5.7-2.3l32.1-32.1
						c3.1-3.1,3.1-8.2,0-11.3l-48.2-48.2C446.2,124.6,442.3,123.1,438.5,123.1L438.5,123.1z"/>
				</g>
			</g>
			<g>
				<g>
					
						<rect x="419.9" y="145.5" transform="matrix(0.7071 -0.7071 0.7071 0.7071 10.7191 367.5844)" class="st1" width="58.3" height="50.6"/>
				</g>
				<g>
					<path class="st0" d="M451.8,134.4l33.7,33.7l-39.1,39.1l-33.7-33.7L451.8,134.4 M451.8,130.2l-43.4,43.4l37.9,37.9l43.4-43.4
						L451.8,130.2L451.8,130.2z"/>
				</g>
			</g>
			<g>
				<g>
					<path d="M447.3,162.1l2.6-2.6l11.2,11.2l-2.6,2.6L447.3,162.1z"/>
				</g>
				<g>
					<path d="M450.5,176.8c0.2-0.4,0.2-0.8,0.2-1.2c0-0.4-0.1-0.8-0.4-1.2c-0.2-0.4-0.5-0.8-0.9-1.2l-6.6-6.6l2.6-2.6l6.6,6.6
						c0.7,0.7,1.2,1.4,1.6,2.2c0.4,0.8,0.5,1.6,0.5,2.4c0,0.8-0.2,1.7-0.5,2.5c-0.4,0.8-0.9,1.6-1.7,2.3c-0.7,0.7-1.5,1.3-2.3,1.7
						c-0.8,0.4-1.6,0.5-2.5,0.5s-1.6-0.2-2.4-0.5c-0.8-0.4-1.5-0.9-2.2-1.5l-6.6-6.6l2.6-2.6l6.6,6.6c0.4,0.4,0.8,0.7,1.2,0.9
						c0.4,0.2,0.8,0.3,1.2,0.4c0.4,0,0.8,0,1.2-0.2c0.4-0.2,0.8-0.4,1.1-0.8C450.1,177.6,450.3,177.2,450.5,176.8z"/>
				</g>
			</g>
			<g>
				<path class="st3" d="M358.1,92.1c18.7-12.9,35-10.7,36.1-10.3S382,44.4,353.8,58.4C327.7,71.3,329.7,111.8,358.1,92.1z"/>
				<path class="st0" d="M339.8,97.8c-3.8-2-5.9-6.5-5.8-12.2c0.1-9.2,6.2-22,19.2-28.5c15.4-7.7,26.4-0.5,32.9,6.9
					c5.8,6.6,10.7,16.9,9.5,18.7l-0.7,0.9l-1-0.3c-0.1,0-15.9-2.9-34.8,10.1l0,0c-6.1,4.2-10.7,5.6-14.2,5.6
					C342.7,99,341,98.4,339.8,97.8z M392.3,80c-1.6-4.4-6.9-15.5-16.4-20.6c-6.5-3.6-13.8-3.5-21.4,0.4
					c-11.9,5.9-17.4,17.5-17.5,25.8c-0.1,4.6,1.5,8.1,4.2,9.5c3.7,2,9.4,0.5,16.1-4.2v0c13.3-9.2,25.8-11,32.5-11
					C390.8,79.9,391.6,80,392.3,80z"/>
			</g>
			<g>
				<g>
					<path class="st3" d="M326.3,91.2c1.2,0,2-0.4,2.4-1.2c0.7-1.3,0.7-4-1.6-7.6l-0.1-0.2c-2-3.3-3.3-5.2-6.1-5.2
						c-2.9,0-5.1,2.4-5.1,5.5c0,3,2.2,4.7,5.3,6.8C323.5,90.8,325.3,91.2,326.3,91.2z"/>
				</g>
				<g>
					<g>
						<path class="st0" d="M321,78.4c1.9,0,2.8,1.2,4.8,4.5l0.1,0.2c2,3.3,1.9,5.4,1.5,6.1c-0.1,0.1-0.3,0.5-1.1,0.5
							c-0.7,0-2.1-0.2-4.4-1.7c-3.2-2.1-4.6-3.4-4.6-5.5C317.4,80.2,319,78.4,321,78.4 M321,75.4c-3.8,0-6.6,3.2-6.6,7
							c0,3.8,2.7,5.9,5.9,8c2.3,1.5,4.4,2.2,6,2.2c4.4,0,6.1-4.8,2.2-11.2C326.5,78.3,324.8,75.4,321,75.4L321,75.4z"/>
					</g>
				</g>
			</g>
			<g>
				<g>
					<path class="st3" d="M430,127.3l-3.8-3.8c-0.7-0.7-1.5-1-2.5-1s-1.8,0.4-2.5,1l-19.4,19.4c-1.4,1.4-1.4,3.6,0,5l3.8,3.8
						L430,127.3z"/>
				</g>
				<g>
					<path class="st0" d="M423.7,124c0.5,0,1,0.2,1.4,0.6l2.8,2.8l-22.2,22.2l-2.8-2.8c-0.8-0.8-0.8-2.1,0-2.8l19.4-19.4
						C422.6,124.2,423.1,124,423.7,124 M423.7,121c-1.3,0-2.6,0.5-3.5,1.5l-19.4,19.4c-1.9,1.9-1.9,5.1,0,7.1l4.9,4.9l26.5-26.5
						l-4.9-4.9C426.2,121.5,424.9,121,423.7,121L423.7,121z"/>
				</g>
			</g>
			<g>
				<g>
					<path d="M51.1,192.5l2.6,2.6l-11.2,11.2l-2.6-2.6L51.1,192.5z"/>
				</g>
				<g>
					<path d="M36.4,195.7c0.4,0.2,0.8,0.2,1.2,0.2c0.4,0,0.8-0.1,1.2-0.4c0.4-0.2,0.8-0.5,1.2-0.9l6.6-6.6l2.6,2.6l-6.6,6.6
						c-0.7,0.7-1.4,1.2-2.2,1.6s-1.6,0.5-2.4,0.5s-1.7-0.2-2.5-0.5c-0.8-0.4-1.6-0.9-2.3-1.7c-0.7-0.7-1.3-1.5-1.7-2.3
						c-0.4-0.8-0.5-1.6-0.5-2.5c0-0.8,0.2-1.6,0.5-2.4s0.9-1.5,1.5-2.2l6.6-6.6l2.6,2.6l-6.6,6.6c-0.4,0.4-0.7,0.8-0.9,1.2
						c-0.2,0.4-0.3,0.8-0.4,1.2c0,0.4,0,0.8,0.2,1.2c0.2,0.4,0.4,0.8,0.8,1.1C35.7,195.2,36,195.5,36.4,195.7z"/>
				</g>
			</g>
		</g>
	</g>
</g>
</svg>
