<?xml version="1.0" encoding="utf-8"?>
<!-- Generator: Adobe Illustrator 22.1.0, SVG Export Plug-In . SVG Version: 6.00 Build 0)  -->
<svg version="1.1" id="Layer_1" xmlns="http://www.w3.org/2000/svg" xmlns:xlink="http://www.w3.org/1999/xlink" x="0px" y="0px"
	 viewBox="0 0 554 490" style="enable-background:new 0 0 554 490;" xml:space="preserve">
<style type="text/css">
	.st0{fill:#F5F7FF;}
	.st1{fill:none;stroke:#1A1A1A;stroke-width:3;}
	.st2{font-family:'AvenirNext-Bold';}
	.st3{font-size:9px;}
	.st4{fill:#F4F7FF;}
	.st5{fill:#D3D5DC;}
	.st6{fill:none;stroke:#11171B;stroke-width:3;}
	.st7{fill:#11171B;}
	.st8{fill:#D3D5DD;}
	.st9{fill:none;stroke:#11171B;stroke-width:3;stroke-linecap:square;}
	.st10{fill:#AFB2BC;}
	.st11{fill:#FFFFFF;}
	.st12{display:none;}
	.st13{display:inline;fill:#FFFFFF;}
	.st14{fill:#FFD200;}
	.st15{fill:#F4F7FF;stroke:#11171B;stroke-width:3;}
	.st16{fill:#FFD200;stroke:#11171B;stroke-width:3;}
	.st17{fill:#1A1A1A;}
</style>
<g id="Rectangle-2">
	<g>
		<path id="path-1" class="st0" d="M145,202c0-8.3,6.7-15,15-15h326c8.3,0,15,6.7,15,15v195H145V202z"/>
	</g>
	<path class="st1" d="M146.5,395.5h353V202c0-7.5-6-13.5-13.5-13.5H160c-7.5,0-13.5,6-13.5,13.5V395.5z"/>
</g>
<text transform="matrix(1 0 0 1 389.0981 312.5891)" class="st2 st3">F5F7FF</text>
<g id="Rectangle-2_1_">
	<g>
		<path id="path-2" class="st4" d="M145,394h356v32c0,8.3-6.7,15-15,15H160c-8.3,0-15-6.7-15-15V394z"/>
	</g>
	<path class="st1" d="M146.5,395.5V426c0,7.5,6,13.5,13.5,13.5h326c7.5,0,13.5-6,13.5-13.5v-30.5H146.5z"/>
</g>
<g id="Combined-Shape">
	<g>
		<path id="path-3" class="st5" d="M349.7,438h3.8l6.5,43h-16.8H286l6.5-43H349.7z"/>
	</g>
	<path class="st6" d="M293.8,439.5l-6,40h70.5l-6-40H293.8z"/>
</g>
<g id="Combined-Shape_1_" transform="translate(34.217039, 119.209839) rotate(-16.000000) translate(-34.217039, -119.209839) ">
	<g>
		<path id="path-4" class="st0" d="M56.7,131.7c-6.5,4.1-11.3,11.2-13.2,19.7H25.2c-1.8-8.6-6.8-15.8-13.4-19.9L29.6,87h7.9h1.2
			L56.7,131.7z"/>
	</g>
	<path class="st6" d="M57.5,132.9c-6.2,3.9-10.8,10.8-12.5,18.8l-0.3,1.2H24l-0.3-1.2c-1.7-8.1-6.4-15-12.7-18.9l-1.1-0.7l18.7-46.7
		h11.1l18.8,46.8L57.5,132.9z"/>
</g>
<rect id="Rectangle-11" x="29.2" y="87.5" transform="matrix(0.9613 -0.2756 0.2756 0.9613 -28.5674 12.6627)" class="st7" width="3.1" height="40.9"/>
<ellipse id="Oval-5" transform="matrix(0.9613 -0.2756 0.2756 0.9613 -34.6782 15.3834)" class="st6" cx="37.4" cy="131.1" rx="4.2" ry="4.1"/>
<g id="Rectangle-12" transform="translate(44.437013, 155.641206) rotate(-16.000000) translate(-44.437013, -155.641206) ">
	<g>
		<path id="path-5" class="st8" d="M27.4,155c0-2.8,2.2-5,5-5l24.1,0c2.8,0,5,2.2,5,5l0,6.2l-34.1,0L27.4,155z"/>
	</g>
	<path class="st6" d="M28.9,159.8l31.1,0l0-4.7c0-1.9-1.6-3.5-3.5-3.5l-24.1,0c-1.9,0-3.5,1.6-3.5,3.5L28.9,159.8z"/>
</g>
<path id="Line" class="st9" d="M46,160.2c0,0,9.8,61.1,45.5,59.8c35.7-1.3,34.1-39.4,16-48.6s-43.9-3.6-57.4,39.9
	c-14,45.3-4.1,117.7,96,148.7"/>
<path id="Combined-Shape_2_" class="st7" d="M321.5,409.2c-0.1,0.5-0.1,1-0.1,1.5c0,4.6,3.7,8.3,8.3,8.3c0.5,0,1,0,1.5-0.1
	c-0.7,3.8-4.1,6.7-8.2,6.7c-4.6,0-8.3-3.7-8.3-8.3C314.7,413.3,317.6,409.9,321.5,409.2z"/>
<g id="Rectangle-8">
	<g>
		<path id="path-6" class="st10" d="M275,483c0-2.8,2.2-5,5-5h85c2.8,0,5,2.2,5,5v6h-95V483z"/>
	</g>
	<path class="st6" d="M276.5,487.5h92V483c0-1.9-1.6-3.5-3.5-3.5h-85c-1.9,0-3.5,1.6-3.5,3.5V487.5z"/>
</g>
<g id="Rectangle-7">
	<g>
		<path id="path-7" class="st11" d="M169,216c0-2.8,2.2-5,5-5h298c2.8,0,5,2.2,5,5v181H169V216z"/>
	</g>
	<path class="st6" d="M170.5,395.5h305V216c0-1.9-1.6-3.5-3.5-3.5H174c-1.9,0-3.5,1.6-3.5,3.5V395.5z"/>
</g>
<g id="Rectangle-7_1_">
	<g class="st12">
		<rect id="path-8" x="169" y="235.5" class="st13" width="308" height="3"/>
	</g>
	<g>
		<polygon class="st7" points="475.5,236 170.5,236 170.5,239 475.5,239 475.5,236 		"/>
	</g>
</g>
<g id="Oval-3">
	<g>
		<circle id="path-9" class="st14" cx="188.4" cy="225" r="6"/>
	</g>
	<circle class="st6" cx="188.4" cy="225" r="4.5"/>
</g>
<g id="Oval-3_1_">
	<g>
		<circle id="path-10" class="st14" cx="206" cy="225" r="6"/>
	</g>
	<circle class="st6" cx="206" cy="225" r="4.5"/>
</g>
<g id="Oval-3_2_">
	<g>
		<circle id="path-11" class="st14" cx="223.6" cy="225" r="6"/>
	</g>
	<circle class="st6" cx="223.6" cy="225" r="4.5"/>
</g>
<g id="Mask">
	<path class="st15" d="M262,251.5h122c2.8,0,5,2.2,5,5v121c0,2.8-2.2,5-5,5H262c-2.8,0-5-2.2-5-5v-121
		C257,253.7,259.2,251.5,262,251.5z"/>
</g>
<rect id="Rectangle-6" x="285.6" y="309.6" transform="matrix(0.7071 -0.7071 0.7071 0.7071 -164.8879 306.1508)" class="st7" width="3" height="85"/>
<rect id="Rectangle-6_1_" x="287.8" y="334.4" transform="matrix(0.7071 -0.7071 0.7071 0.7071 -142.8703 326.9789)" class="st7" width="71" height="3"/>
<g id="Oval-7">
	<g>
		<circle id="path-14" class="st14" cx="298.7" cy="307.6" r="14"/>
	</g>
	<circle class="st6" cx="298.7" cy="307.6" r="12.5"/>
</g>
<polygon id="Rectangle-6_2_" class="st7" points="348.1,308.9 390,351 388,353 346.1,310.9 "/>
<g id="Mask_1_">
	<path class="st16" d="M408,251.5h122c2.8,0,5,2.2,5,5v121c0,2.8-2.2,5-5,5H408c-2.8,0-5-2.2-5-5v-121
		C403,253.7,405.2,251.5,408,251.5z"/>
</g>
<polygon id="Rectangle-6_3_" class="st7" points="406,251 536,380 533.8,382.2 403.8,253.2 "/>
<polygon id="Rectangle-6_4_" class="st7" points="533.8,250.8 404.8,379.8 407,382 536,253 "/>
<g id="Mask_2_">
	<path class="st16" d="M116,251.5h122c2.8,0,5,2.2,5,5v121c0,2.8-2.2,5-5,5H116c-2.8,0-5-2.2-5-5v-121
		C111,253.7,113.2,251.5,116,251.5z"/>
</g>
<polygon id="Rectangle-6_5_" class="st7" points="113.9,251.5 243,380 240.8,382.2 111.7,253.7 "/>
<polygon id="Rectangle-6_6_" class="st7" points="240.8,251.5 111.7,379.8 113.9,382 243,253.7 "/>
<path id="Rectangle-5" class="st17" d="M265.5,486h113c0.8,0,1.5,0.7,1.5,1.5l0,0c0,0.8-0.7,1.5-1.5,1.5h-113
	c-0.8,0-1.5-0.7-1.5-1.5l0,0C264,486.7,264.7,486,265.5,486z"/>
<path id="Rectangle-5_1_" class="st17" d="M404.5,486h148c0.8,0,1.5,0.7,1.5,1.5l0,0c0,0.8-0.7,1.5-1.5,1.5h-148
	c-0.8,0-1.5-0.7-1.5-1.5l0,0C403,486.7,403.7,486,404.5,486z"/>
<path id="Rectangle-5_2_" class="st17" d="M95.5,486h148c0.8,0,1.5,0.7,1.5,1.5l0,0c0,0.8-0.7,1.5-1.5,1.5h-148
	c-0.8,0-1.5-0.7-1.5-1.5l0,0C94,486.7,94.7,486,95.5,486z"/>
<path id="Rectangle-5_3_" class="st17" d="M1.5,486h73.9c0.8,0,1.5,0.7,1.5,1.5l0,0c0,0.8-0.7,1.5-1.5,1.5H1.5
	c-0.8,0-1.5-0.7-1.5-1.5l0,0C0,486.7,0.7,486,1.5,486z"/>
<g id="Oval-6">
	<g>
		<circle id="path-19" class="st14" cx="322.5" cy="118.5" r="38.5"/>
	</g>
	<circle class="st6" cx="322.5" cy="118.5" r="37"/>
</g>
<path id="UX" d="M314.9,124.2c0.5,0,0.9-0.1,1.2-0.2c0.4-0.2,0.7-0.4,0.9-0.6c0.2-0.3,0.4-0.6,0.6-1c0.1-0.4,0.2-0.9,0.2-1.4v-8.6
	h3.4v8.6c0,0.9-0.1,1.7-0.4,2.5c-0.3,0.7-0.7,1.4-1.2,1.9s-1.2,1-2,1.3s-1.6,0.4-2.6,0.4c-1,0-1.8-0.1-2.6-0.4s-1.4-0.7-2-1.3
	s-1-1.2-1.2-1.9c-0.3-0.7-0.4-1.6-0.4-2.5v-8.6h3.4v8.6c0,0.5,0.1,1,0.2,1.4s0.3,0.7,0.6,1c0.2,0.3,0.5,0.5,0.9,0.6
	C314,124.1,314.4,124.2,314.9,124.2z M326.9,119.4l-4.5-7.1h3.4c0.2,0,0.4,0,0.5,0.1c0.1,0.1,0.2,0.2,0.3,0.3l2.9,4.9
	c0-0.1,0.1-0.2,0.1-0.2s0.1-0.2,0.1-0.2l2.5-4.4c0.2-0.3,0.4-0.4,0.7-0.4h3.2l-4.6,6.9l4.7,7.6h-3.4c-0.2,0-0.4-0.1-0.5-0.2
	s-0.2-0.2-0.3-0.4l-2.9-5.1c-0.1,0.1-0.1,0.3-0.2,0.4l-2.7,4.7c-0.1,0.1-0.2,0.3-0.3,0.4s-0.3,0.2-0.5,0.2h-3.2L326.9,119.4z"/>
<path id="Rectangle-13" class="st7" d="M321.4,22.5L321.4,22.5c0.9,0,1.5,0.7,1.5,1.6v22.5c0,0.9-0.7,1.6-1.6,1.6h0
	c-0.9,0-1.6-0.7-1.6-1.6V24C319.9,23.2,320.6,22.5,321.4,22.5z"/>
<path id="Rectangle-13_1_" class="st7" d="M380,36.2L380,36.2c0.8,0.4,1.1,1.3,0.7,2.1l-10.2,20c-0.4,0.8-1.3,1.1-2.1,0.7v0
	c-0.8-0.4-1.1-1.3-0.7-2.1l10.2-20C378.3,36.1,379.2,35.8,380,36.2z"/>
<path id="Rectangle-13_2_" class="st7" d="M429.7,79L429.7,79c0.5,0.7,0.3,1.7-0.4,2.2L410.9,94c-0.7,0.5-1.7,0.3-2.2-0.4l0,0
	c-0.5-0.7-0.3-1.7,0.4-2.2l18.4-12.9C428.2,78.1,429.2,78.3,429.7,79z"/>
<path id="Rectangle-13_3_" class="st7" d="M214.5,79L214.5,79c-0.5,0.7-0.3,1.7,0.4,2.2L233.2,94c0.7,0.5,1.7,0.3,2.2-0.4l0,0
	c0.5-0.7,0.3-1.7-0.4-2.2l-18.4-12.9C215.9,78.1,215,78.3,214.5,79z"/>
<path id="Rectangle-13_4_" class="st7" d="M262.9,37.2L262.9,37.2c-0.8,0.4-1.1,1.3-0.7,2.1l10.2,20c0.4,0.8,1.3,1.1,2.1,0.7l0,0
	c0.8-0.4,1.1-1.3,0.7-2.1l-10.2-20C264.6,37.1,263.7,36.8,262.9,37.2z"/>
<path id="Rectangle-13_5_" class="st7" d="M358,0.9L358,0.9c0.8,0.2,1.3,1.1,1.1,1.9l-12.4,46.4c-0.2,0.8-1.1,1.3-1.9,1.1l0,0
	c-0.8-0.2-1.3-1.1-1.1-1.9L356.1,2C356.4,1.1,357.2,0.6,358,0.9z"/>
<path id="Rectangle-13_6_" class="st7" d="M424,34.9L424,34.9c0.6,0.6,0.7,1.5,0.2,2.2l-31.5,36.2c-0.6,0.6-1.5,0.7-2.2,0.2l0,0
	c-0.6-0.6-0.7-1.5-0.2-2.2l31.5-36.2C422.4,34.4,423.4,34.3,424,34.9z"/>
<path id="Rectangle-13_7_" class="st7" d="M220,35.9L220,35.9c-0.6,0.6-0.7,1.5-0.2,2.2l31.5,36.2c0.6,0.6,1.5,0.7,2.2,0.2l0,0
	c0.6-0.6,0.7-1.5,0.2-2.2l-31.5-36.2C221.6,35.4,220.6,35.4,220,35.9z"/>
<path id="Rectangle-13_8_" class="st7" d="M284.9,0.9L284.9,0.9c-0.8,0.2-1.3,1.1-1.1,1.9l12.4,46.4c0.2,0.8,1.1,1.3,1.9,1.1l0,0
	c0.8-0.2,1.3-1.1,1.1-1.9L286.8,2C286.5,1.1,285.7,0.6,284.9,0.9z"/>
</svg>
